@startuml

skinparam svgLinkTarget _parent
skinparam linetype ortho
set namespaceSeparator none
class "<b><size:14>MessageFactoryImpl</b>\n<size:10>it.matlice.ingsw.model.data.impl.jdbc" as it.matlice.ingsw.model.data.impl.jdbc.MessageFactoryImpl  [[../../../../../../../it/matlice/ingsw/model/data/impl/jdbc/MessageFactoryImpl.html{it.matlice.ingsw.model.data.impl.jdbc.MessageFactoryImpl}]] {
-<any> messageDAO
-<any> offerDAO
+MessageFactoryImpl()
+Message send(Offer offer,String location,Calendar date,long time)
+Message answer(Message msg,Offer offer,String location,Calendar date)
+List<Message> getUserMessages(User u)
-MessageImpl createMessage(Offer offer,String location,Long date,MessageImpl answer_to)
}


interface "<b><size:14>MessageFactory</b>\n<size:10>it.matlice.ingsw.model.data.factories" as it.matlice.ingsw.model.data.factories.MessageFactory  [[../../../../../../../it/matlice/ingsw/model/data/factories/MessageFactory.html{it.matlice.ingsw.model.data.factories.MessageFactory}]] #white {
}

hide it.matlice.ingsw.model.data.factories.MessageFactory fields
hide it.matlice.ingsw.model.data.factories.MessageFactory methods

it.matlice.ingsw.model.data.impl.jdbc.MessageFactoryImpl ..|> it.matlice.ingsw.model.data.factories.MessageFactory

class "<b><size:14>Offer</b>\n<size:10>it.matlice.ingsw.model.data" as it.matlice.ingsw.model.data.Offer  [[../../../../../../../it/matlice/ingsw/model/data/Offer.html{it.matlice.ingsw.model.data.Offer}]] #white {
}

hide it.matlice.ingsw.model.data.Offer fields
hide it.matlice.ingsw.model.data.Offer methods

it.matlice.ingsw.model.data.impl.jdbc.MessageFactoryImpl ..> it.matlice.ingsw.model.data.Offer


class "<b><size:14>Message</b>\n<size:10>it.matlice.ingsw.model.data" as it.matlice.ingsw.model.data.Message  [[../../../../../../../it/matlice/ingsw/model/data/Message.html{it.matlice.ingsw.model.data.Message}]] #white {
}

hide it.matlice.ingsw.model.data.Message fields
hide it.matlice.ingsw.model.data.Message methods

it.matlice.ingsw.model.data.impl.jdbc.MessageFactoryImpl ..> it.matlice.ingsw.model.data.Message

class "<b><size:14>User</b>\n<size:10>it.matlice.ingsw.model.data" as it.matlice.ingsw.model.data.User  [[../../../../../../../it/matlice/ingsw/model/data/User.html{it.matlice.ingsw.model.data.User}]] #white {
}

hide it.matlice.ingsw.model.data.User fields
hide it.matlice.ingsw.model.data.User methods

it.matlice.ingsw.model.data.impl.jdbc.MessageFactoryImpl ..> it.matlice.ingsw.model.data.User




@enduml
