@startuml

skinparam svgLinkTarget _parent
skinparam linetype ortho
set namespaceSeparator none
interface "<b><size:14>CategoryFactory</b>\n<size:10>it.matlice.ingsw.model.data.factories" as it.matlice.ingsw.model.data.factories.CategoryFactory  [[../../../../../../it/matlice/ingsw/model/data/factories/CategoryFactory.html{it.matlice.ingsw.model.data.factories.CategoryFactory}]] {
{abstract} +Category getCategory(int id)
{abstract} +Category createCategory(String nome,String description,Category father,boolean isLeaf)
{abstract} +Category saveCategory(Category category)
}


class "<b><size:14>Model</b>\n<size:10>it.matlice.ingsw.model" as it.matlice.ingsw.model.Model  [[../../../../../../it/matlice/ingsw/model/Model.html{it.matlice.ingsw.model.Model}]] #white {
}

hide it.matlice.ingsw.model.Model fields
hide it.matlice.ingsw.model.Model methods

it.matlice.ingsw.model.Model -->  "cf" it.matlice.ingsw.model.data.factories.CategoryFactory

class "<b><size:14>Category</b>\n<size:10>it.matlice.ingsw.model.data" as it.matlice.ingsw.model.data.Category  [[../../../../../../it/matlice/ingsw/model/data/Category.html{it.matlice.ingsw.model.data.Category}]] #white {
}

hide it.matlice.ingsw.model.data.Category fields
hide it.matlice.ingsw.model.data.Category methods

it.matlice.ingsw.model.data.factories.CategoryFactory ..> it.matlice.ingsw.model.data.Category

class "<b><size:14>CategoryFactoryImpl</b>\n<size:10>it.matlice.ingsw.model.data.impl.jdbc" as it.matlice.ingsw.model.data.impl.jdbc.CategoryFactoryImpl  [[../../../../../../it/matlice/ingsw/model/data/impl/jdbc/CategoryFactoryImpl.html{it.matlice.ingsw.model.data.impl.jdbc.CategoryFactoryImpl}]] #white {
}

hide it.matlice.ingsw.model.data.impl.jdbc.CategoryFactoryImpl fields
hide it.matlice.ingsw.model.data.impl.jdbc.CategoryFactoryImpl methods

it.matlice.ingsw.model.data.impl.jdbc.CategoryFactoryImpl ..|> it.matlice.ingsw.model.data.factories.CategoryFactory


@enduml
