@startuml

skinparam svgLinkTarget _parent
skinparam linetype ortho
package it.matlice.ingsw.model.data.impl.jdbc.db [[../../../../../../../../it/matlice/ingsw/model/data/impl/jdbc/db/package-summary.html{it.matlice.ingsw.model.data.impl.jdbc.db}]] #lightyellow {
}

class "<b><size:14>UserDB</b>" as it.matlice.ingsw.model.data.impl.jdbc.db.UserDB <<DatabaseTable>> [[../../../../../../../../it/matlice/ingsw/model/data/impl/jdbc/db/UserDB.html{it.matlice.ingsw.model.data.impl.jdbc.db.UserDB}]] {
}

hide it.matlice.ingsw.model.data.impl.jdbc.db.UserDB fields
hide it.matlice.ingsw.model.data.impl.jdbc.db.UserDB methods

class "<b><size:14>SettingsDB</b>" as it.matlice.ingsw.model.data.impl.jdbc.db.SettingsDB <<DatabaseTable>> [[../../../../../../../../it/matlice/ingsw/model/data/impl/jdbc/db/SettingsDB.html{it.matlice.ingsw.model.data.impl.jdbc.db.SettingsDB}]] {
}

hide it.matlice.ingsw.model.data.impl.jdbc.db.SettingsDB fields
hide it.matlice.ingsw.model.data.impl.jdbc.db.SettingsDB methods

class "<b><size:14>OfferFieldDB</b>" as it.matlice.ingsw.model.data.impl.jdbc.db.OfferFieldDB <<DatabaseTable>> [[../../../../../../../../it/matlice/ingsw/model/data/impl/jdbc/db/OfferFieldDB.html{it.matlice.ingsw.model.data.impl.jdbc.db.OfferFieldDB}]] {
}

hide it.matlice.ingsw.model.data.impl.jdbc.db.OfferFieldDB fields
hide it.matlice.ingsw.model.data.impl.jdbc.db.OfferFieldDB methods

class "<b><size:14>OfferDB</b>" as it.matlice.ingsw.model.data.impl.jdbc.db.OfferDB <<DatabaseTable>> [[../../../../../../../../it/matlice/ingsw/model/data/impl/jdbc/db/OfferDB.html{it.matlice.ingsw.model.data.impl.jdbc.db.OfferDB}]] {
}

hide it.matlice.ingsw.model.data.impl.jdbc.db.OfferDB fields
hide it.matlice.ingsw.model.data.impl.jdbc.db.OfferDB methods

class "<b><size:14>MessageDB</b>" as it.matlice.ingsw.model.data.impl.jdbc.db.MessageDB <<DatabaseTable>> [[../../../../../../../../it/matlice/ingsw/model/data/impl/jdbc/db/MessageDB.html{it.matlice.ingsw.model.data.impl.jdbc.db.MessageDB}]] {
}

hide it.matlice.ingsw.model.data.impl.jdbc.db.MessageDB fields
hide it.matlice.ingsw.model.data.impl.jdbc.db.MessageDB methods

class "<b><size:14>LocationsDB</b>" as it.matlice.ingsw.model.data.impl.jdbc.db.LocationsDB <<DatabaseTable>> [[../../../../../../../../it/matlice/ingsw/model/data/impl/jdbc/db/LocationsDB.html{it.matlice.ingsw.model.data.impl.jdbc.db.LocationsDB}]] {
}

hide it.matlice.ingsw.model.data.impl.jdbc.db.LocationsDB fields
hide it.matlice.ingsw.model.data.impl.jdbc.db.LocationsDB methods

class "<b><size:14>IntervalsDB</b>" as it.matlice.ingsw.model.data.impl.jdbc.db.IntervalsDB <<DatabaseTable>> [[../../../../../../../../it/matlice/ingsw/model/data/impl/jdbc/db/IntervalsDB.html{it.matlice.ingsw.model.data.impl.jdbc.db.IntervalsDB}]] {
}

hide it.matlice.ingsw.model.data.impl.jdbc.db.IntervalsDB fields
hide it.matlice.ingsw.model.data.impl.jdbc.db.IntervalsDB methods

class "<b><size:14>HierarchyDB</b>" as it.matlice.ingsw.model.data.impl.jdbc.db.HierarchyDB <<DatabaseTable>> [[../../../../../../../../it/matlice/ingsw/model/data/impl/jdbc/db/HierarchyDB.html{it.matlice.ingsw.model.data.impl.jdbc.db.HierarchyDB}]] {
}

hide it.matlice.ingsw.model.data.impl.jdbc.db.HierarchyDB fields
hide it.matlice.ingsw.model.data.impl.jdbc.db.HierarchyDB methods

class "<b><size:14>DaysDB</b>" as it.matlice.ingsw.model.data.impl.jdbc.db.DaysDB <<DatabaseTable>> [[../../../../../../../../it/matlice/ingsw/model/data/impl/jdbc/db/DaysDB.html{it.matlice.ingsw.model.data.impl.jdbc.db.DaysDB}]] {
}

hide it.matlice.ingsw.model.data.impl.jdbc.db.DaysDB fields
hide it.matlice.ingsw.model.data.impl.jdbc.db.DaysDB methods

class "<b><size:14>CategoryFieldDB</b>" as it.matlice.ingsw.model.data.impl.jdbc.db.CategoryFieldDB <<DatabaseTable>> [[../../../../../../../../it/matlice/ingsw/model/data/impl/jdbc/db/CategoryFieldDB.html{it.matlice.ingsw.model.data.impl.jdbc.db.CategoryFieldDB}]] {
}

hide it.matlice.ingsw.model.data.impl.jdbc.db.CategoryFieldDB fields
hide it.matlice.ingsw.model.data.impl.jdbc.db.CategoryFieldDB methods

class "<b><size:14>CategoryDB</b>" as it.matlice.ingsw.model.data.impl.jdbc.db.CategoryDB <<DatabaseTable>> [[../../../../../../../../it/matlice/ingsw/model/data/impl/jdbc/db/CategoryDB.html{it.matlice.ingsw.model.data.impl.jdbc.db.CategoryDB}]] {
}

hide it.matlice.ingsw.model.data.impl.jdbc.db.CategoryDB fields
hide it.matlice.ingsw.model.data.impl.jdbc.db.CategoryDB methods

it.matlice.ingsw.model.data.impl.jdbc.db.OfferFieldDB -->  "ref" it.matlice.ingsw.model.data.impl.jdbc.db.CategoryFieldDB
it.matlice.ingsw.model.data.impl.jdbc.db.OfferFieldDB -->  "offer_ref" it.matlice.ingsw.model.data.impl.jdbc.db.OfferDB
it.matlice.ingsw.model.data.impl.jdbc.db.OfferDB -->  "owner" it.matlice.ingsw.model.data.impl.jdbc.db.UserDB
it.matlice.ingsw.model.data.impl.jdbc.db.OfferDB -->  "category" it.matlice.ingsw.model.data.impl.jdbc.db.CategoryDB
it.matlice.ingsw.model.data.impl.jdbc.db.OfferDB -->  "linked_offer" it.matlice.ingsw.model.data.impl.jdbc.db.OfferDB
it.matlice.ingsw.model.data.impl.jdbc.db.MessageDB -->  "answer" it.matlice.ingsw.model.data.impl.jdbc.db.MessageDB
it.matlice.ingsw.model.data.impl.jdbc.db.MessageDB -->  "relative_offer" it.matlice.ingsw.model.data.impl.jdbc.db.OfferDB
it.matlice.ingsw.model.data.impl.jdbc.db.LocationsDB -->  "ref" it.matlice.ingsw.model.data.impl.jdbc.db.SettingsDB
it.matlice.ingsw.model.data.impl.jdbc.db.IntervalsDB -->  "ref" it.matlice.ingsw.model.data.impl.jdbc.db.SettingsDB
it.matlice.ingsw.model.data.impl.jdbc.db.HierarchyDB -->  "root" it.matlice.ingsw.model.data.impl.jdbc.db.CategoryDB
it.matlice.ingsw.model.data.impl.jdbc.db.DaysDB -->  "ref" it.matlice.ingsw.model.data.impl.jdbc.db.SettingsDB
it.matlice.ingsw.model.data.impl.jdbc.db.CategoryFieldDB -->  "category" it.matlice.ingsw.model.data.impl.jdbc.db.CategoryDB
it.matlice.ingsw.model.data.impl.jdbc.db.CategoryDB -->  "father" it.matlice.ingsw.model.data.impl.jdbc.db.CategoryDB

@enduml
