@startuml

skinparam svgLinkTarget _parent
skinparam linetype ortho
set namespaceSeparator none
class "<b><size:14>HierarchyImpl</b>\n<size:10>it.matlice.ingsw.model.data.impl.jdbc.types" as it.matlice.ingsw.model.data.impl.jdbc.types.HierarchyImpl  [[../../../../../../../../it/matlice/ingsw/model/data/impl/jdbc/types/HierarchyImpl.html{it.matlice.ingsw.model.data.impl.jdbc.types.HierarchyImpl}]] {
-HierarchyDB dbData
+HierarchyImpl(HierarchyDB from,Category root_category)
+HierarchyDB getDbData()
}


class "<b><size:14>HierarchyDB</b>\n<size:10>it.matlice.ingsw.model.data.impl.jdbc.db" as it.matlice.ingsw.model.data.impl.jdbc.db.HierarchyDB <<DatabaseTable>> [[../../../../../../../../it/matlice/ingsw/model/data/impl/jdbc/db/HierarchyDB.html{it.matlice.ingsw.model.data.impl.jdbc.db.HierarchyDB}]] #white {
}

hide it.matlice.ingsw.model.data.impl.jdbc.db.HierarchyDB fields
hide it.matlice.ingsw.model.data.impl.jdbc.db.HierarchyDB methods

it.matlice.ingsw.model.data.impl.jdbc.types.HierarchyImpl -->  "dbData" it.matlice.ingsw.model.data.impl.jdbc.db.HierarchyDB

class "<b><size:14>Hierarchy</b>\n<size:10>it.matlice.ingsw.model.data" as it.matlice.ingsw.model.data.Hierarchy  [[../../../../../../../../it/matlice/ingsw/model/data/Hierarchy.html{it.matlice.ingsw.model.data.Hierarchy}]] #white {
}

hide it.matlice.ingsw.model.data.Hierarchy fields
hide it.matlice.ingsw.model.data.Hierarchy methods

it.matlice.ingsw.model.data.impl.jdbc.types.HierarchyImpl --|> it.matlice.ingsw.model.data.Hierarchy

class "<b><size:14>Category</b>\n<size:10>it.matlice.ingsw.model.data" as it.matlice.ingsw.model.data.Category  [[../../../../../../../../it/matlice/ingsw/model/data/Category.html{it.matlice.ingsw.model.data.Category}]] #white {
}

hide it.matlice.ingsw.model.data.Category fields
hide it.matlice.ingsw.model.data.Category methods

it.matlice.ingsw.model.data.impl.jdbc.types.HierarchyImpl ..> it.matlice.ingsw.model.data.Category


@enduml
