@startuml

skinparam svgLinkTarget _parent
skinparam linetype ortho
set namespaceSeparator none
enum "<b><size:14>Offer.OfferStatus</b>\n<size:10>it.matlice.ingsw.model.data" as it.matlice.ingsw.model.data.Offer.OfferStatus  [[../../../../../it/matlice/ingsw/model/data/Offer.OfferStatus.html{it.matlice.ingsw.model.data.Offer.OfferStatus}]] {
+String name
-OfferStatus(String name)
{static} +Offer.OfferStatus values()
{static} +Offer.OfferStatus valueOf(String name)
+String getName()
}


class "<b><size:14>Offer</b>\n<size:10>it.matlice.ingsw.model.data" as it.matlice.ingsw.model.data.Offer  [[../../../../../it/matlice/ingsw/model/data/Offer.html{it.matlice.ingsw.model.data.Offer}]] {
}

hide it.matlice.ingsw.model.data.Offer fields
hide it.matlice.ingsw.model.data.Offer methods

it.matlice.ingsw.model.data.Offer ..> it.matlice.ingsw.model.data.Offer.OfferStatus

interface "<b><size:14>OfferFactory</b>\n<size:10>it.matlice.ingsw.model.data.factories" as it.matlice.ingsw.model.data.factories.OfferFactory  [[../../../../../it/matlice/ingsw/model/data/factories/OfferFactory.html{it.matlice.ingsw.model.data.factories.OfferFactory}]] #white {
}

hide it.matlice.ingsw.model.data.factories.OfferFactory fields
hide it.matlice.ingsw.model.data.factories.OfferFactory methods

it.matlice.ingsw.model.data.factories.OfferFactory ..> it.matlice.ingsw.model.data.Offer.OfferStatus

class "<b><size:14>OfferFactoryImpl</b>\n<size:10>it.matlice.ingsw.model.data.impl.jdbc" as it.matlice.ingsw.model.data.impl.jdbc.OfferFactoryImpl  [[../../../../../it/matlice/ingsw/model/data/impl/jdbc/OfferFactoryImpl.html{it.matlice.ingsw.model.data.impl.jdbc.OfferFactoryImpl}]] #white {
}

hide it.matlice.ingsw.model.data.impl.jdbc.OfferFactoryImpl fields
hide it.matlice.ingsw.model.data.impl.jdbc.OfferFactoryImpl methods

it.matlice.ingsw.model.data.impl.jdbc.OfferFactoryImpl ..> it.matlice.ingsw.model.data.Offer.OfferStatus

class "<b><size:14>OfferDB</b>\n<size:10>it.matlice.ingsw.model.data.impl.jdbc.db" as it.matlice.ingsw.model.data.impl.jdbc.db.OfferDB <<DatabaseTable>> [[../../../../../it/matlice/ingsw/model/data/impl/jdbc/db/OfferDB.html{it.matlice.ingsw.model.data.impl.jdbc.db.OfferDB}]] #white {
}

hide it.matlice.ingsw.model.data.impl.jdbc.db.OfferDB fields
hide it.matlice.ingsw.model.data.impl.jdbc.db.OfferDB methods

it.matlice.ingsw.model.data.impl.jdbc.db.OfferDB ..> it.matlice.ingsw.model.data.Offer.OfferStatus

class "<b><size:14>OfferImpl</b>\n<size:10>it.matlice.ingsw.model.data.impl.jdbc.types" as it.matlice.ingsw.model.data.impl.jdbc.types.OfferImpl  [[../../../../../it/matlice/ingsw/model/data/impl/jdbc/types/OfferImpl.html{it.matlice.ingsw.model.data.impl.jdbc.types.OfferImpl}]] #white {
}

hide it.matlice.ingsw.model.data.impl.jdbc.types.OfferImpl fields
hide it.matlice.ingsw.model.data.impl.jdbc.types.OfferImpl methods

it.matlice.ingsw.model.data.impl.jdbc.types.OfferImpl ..> it.matlice.ingsw.model.data.Offer.OfferStatus


@enduml
