@startuml

skinparam svgLinkTarget _parent
skinparam linetype ortho
package it.matlice.ingsw.model.auth [[../../../../../it/matlice/ingsw/model/auth/package-summary.html{it.matlice.ingsw.model.auth}]] #lightyellow {
}

interface "<b><size:14>Authenticable</b>" as it.matlice.ingsw.model.auth.Authenticable  [[../../../../../it/matlice/ingsw/model/auth/Authenticable.html{it.matlice.ingsw.model.auth.Authenticable}]] {
}

hide it.matlice.ingsw.model.auth.Authenticable fields
hide it.matlice.ingsw.model.auth.Authenticable methods

interface "<b><size:14>AuthMethod</b>" as it.matlice.ingsw.model.auth.AuthMethod  [[../../../../../it/matlice/ingsw/model/auth/AuthMethod.html{it.matlice.ingsw.model.auth.AuthMethod}]] {
}

hide it.matlice.ingsw.model.auth.AuthMethod fields
hide it.matlice.ingsw.model.auth.AuthMethod methods

interface "<b><size:14>AuthData</b>" as it.matlice.ingsw.model.auth.AuthData  [[../../../../../it/matlice/ingsw/model/auth/AuthData.html{it.matlice.ingsw.model.auth.AuthData}]] {
}

hide it.matlice.ingsw.model.auth.AuthData fields
hide it.matlice.ingsw.model.auth.AuthData methods

it.matlice.ingsw.model.auth.Authenticable ..> it.matlice.ingsw.model.auth.AuthMethod
it.matlice.ingsw.model.auth.AuthMethod ..> it.matlice.ingsw.model.auth.AuthData
it.matlice.ingsw.model.auth.AuthMethod ..> it.matlice.ingsw.model.auth.Authenticable
package it.matlice.ingsw.model.auth.exceptions [[../../../../../it/matlice/ingsw/model/auth/exceptions/package-summary.html{it.matlice.ingsw.model.auth.exceptions}]] {
}

class "<b><size:14>InvalidPasswordException</b>" as it.matlice.ingsw.model.auth.exceptions.InvalidPasswordException  [[../../../../../it/matlice/ingsw/model/auth/exceptions/InvalidPasswordException.html{it.matlice.ingsw.model.auth.exceptions.InvalidPasswordException}]] {
}

hide it.matlice.ingsw.model.auth.exceptions.InvalidPasswordException fields
hide it.matlice.ingsw.model.auth.exceptions.InvalidPasswordException methods

package it.matlice.ingsw.model.auth.password [[../../../../../it/matlice/ingsw/model/auth/password/package-summary.html{it.matlice.ingsw.model.auth.password}]] {
}

class "<b><size:14>PasswordAuthData</b>" as it.matlice.ingsw.model.auth.password.PasswordAuthData  [[../../../../../it/matlice/ingsw/model/auth/password/PasswordAuthData.html{it.matlice.ingsw.model.auth.password.PasswordAuthData}]] {
}

hide it.matlice.ingsw.model.auth.password.PasswordAuthData fields
hide it.matlice.ingsw.model.auth.password.PasswordAuthData methods

interface "<b><size:14>PasswordAuthenticable</b>" as it.matlice.ingsw.model.auth.password.PasswordAuthenticable  [[../../../../../it/matlice/ingsw/model/auth/password/PasswordAuthenticable.html{it.matlice.ingsw.model.auth.password.PasswordAuthenticable}]] {
}

hide it.matlice.ingsw.model.auth.password.PasswordAuthenticable fields
hide it.matlice.ingsw.model.auth.password.PasswordAuthenticable methods

class "<b><size:14>PasswordAuthMethod</b>" as it.matlice.ingsw.model.auth.password.PasswordAuthMethod  [[../../../../../it/matlice/ingsw/model/auth/password/PasswordAuthMethod.html{it.matlice.ingsw.model.auth.password.PasswordAuthMethod}]] {
}

hide it.matlice.ingsw.model.auth.password.PasswordAuthMethod fields
hide it.matlice.ingsw.model.auth.password.PasswordAuthMethod methods


@enduml
