@startuml

skinparam svgLinkTarget _parent
skinparam linetype ortho
package it.matlice.ingsw.xml [[../../../../it/matlice/ingsw/xml/package-summary.html{it.matlice.ingsw.xml}]] #lightyellow {
}

interface "<b><size:14>XMLWritable</b>" as it.matlice.ingsw.xml.XMLWritable  [[../../../../it/matlice/ingsw/xml/XMLWritable.html{it.matlice.ingsw.xml.XMLWritable}]] {
}

hide it.matlice.ingsw.xml.XMLWritable fields
hide it.matlice.ingsw.xml.XMLWritable methods

class "<b><size:14>XMLParser</b>" as it.matlice.ingsw.xml.XMLParser  [[../../../../it/matlice/ingsw/xml/XMLParser.html{it.matlice.ingsw.xml.XMLParser}]] {
}

hide it.matlice.ingsw.xml.XMLParser fields
hide it.matlice.ingsw.xml.XMLParser methods

class "<b><size:14>XMLNode</b>" as it.matlice.ingsw.xml.XMLNode  [[../../../../it/matlice/ingsw/xml/XMLNode.html{it.matlice.ingsw.xml.XMLNode}]] {
}

hide it.matlice.ingsw.xml.XMLNode fields
hide it.matlice.ingsw.xml.XMLNode methods

interface "<b><size:14>XMLConversion</b>" as it.matlice.ingsw.xml.XMLConversion  [[../../../../it/matlice/ingsw/xml/XMLConversion.html{it.matlice.ingsw.xml.XMLConversion}]] {
}

hide it.matlice.ingsw.xml.XMLConversion fields
hide it.matlice.ingsw.xml.XMLConversion methods

class "<b><size:14>Utils</b>" as it.matlice.ingsw.xml.Utils  [[../../../../it/matlice/ingsw/xml/Utils.html{it.matlice.ingsw.xml.Utils}]] {
}

hide it.matlice.ingsw.xml.Utils fields
hide it.matlice.ingsw.xml.Utils methods

class "<b><size:14>PrettyXMLStreamWriter</b>" as it.matlice.ingsw.xml.PrettyXMLStreamWriter  [[../../../../it/matlice/ingsw/xml/PrettyXMLStreamWriter.html{it.matlice.ingsw.xml.PrettyXMLStreamWriter}]] {
}

hide it.matlice.ingsw.xml.PrettyXMLStreamWriter fields
hide it.matlice.ingsw.xml.PrettyXMLStreamWriter methods

it.matlice.ingsw.xml.XMLParser ..> it.matlice.ingsw.xml.XMLConversion
it.matlice.ingsw.xml.XMLConversion ..> it.matlice.ingsw.xml.XMLNode
it.matlice.ingsw.xml.Utils -->  "StringConverter" it.matlice.ingsw.xml.XMLConversion
it.matlice.ingsw.xml.Utils -->  "ArrayListConverter" it.matlice.ingsw.xml.XMLConversion
it.matlice.ingsw.xml.Utils -->  "LinkedListConverter" it.matlice.ingsw.xml.XMLConversion
it.matlice.ingsw.xml.Utils -->  "MapConverter" it.matlice.ingsw.xml.XMLConversion
it.matlice.ingsw.xml.Utils -->  "NullConverter" it.matlice.ingsw.xml.XMLConversion
it.matlice.ingsw.xml.Utils -->  "IntegerConverter" it.matlice.ingsw.xml.XMLConversion
it.matlice.ingsw.xml.Utils -->  "ShortConverter" it.matlice.ingsw.xml.XMLConversion
it.matlice.ingsw.xml.Utils -->  "DoubleConverter" it.matlice.ingsw.xml.XMLConversion
it.matlice.ingsw.xml.Utils -->  "BooleanConverter" it.matlice.ingsw.xml.XMLConversion
it.matlice.ingsw.xml.Utils ..> it.matlice.ingsw.xml.XMLWritable

@enduml
